<svg width="32" height="32" viewBox="0 0 32 32" fill="none" xmlns="http://www.w3.org/2000/svg">
<rect width="32" height="32" fill="#1D1D1D"/>
<path d="M17.3999 8.45454H19.1612V18.8523C19.1612 19.7803 18.9908 20.5687 18.6499 21.2173C18.3089 21.866 17.8284 22.3584 17.2081 22.6946C16.5878 23.0308 15.8563 23.1989 15.0135 23.1989C14.218 23.1989 13.5102 23.0544 12.8899 22.7656C12.2696 22.4721 11.782 22.0554 11.4268 21.5156C11.0717 20.9759 10.8942 20.3343 10.8942 19.5909H12.6271C12.6271 20.0028 12.7289 20.3627 12.9325 20.6705C13.1409 20.9735 13.425 21.2102 13.7848 21.3807C14.1447 21.5511 14.5542 21.6364 15.0135 21.6364C15.5201 21.6364 15.951 21.5298 16.3061 21.3168C16.6612 21.1037 16.9311 20.7912 17.1158 20.3793C17.3052 19.9626 17.3999 19.4536 17.3999 18.8523V8.45454Z" fill="white"/>
</svg>
