<svg width="32" height="32" viewBox="0 0 32 32" fill="none" xmlns="http://www.w3.org/2000/svg">
<rect width="32" height="32" fill="white"/>
<path d="M11.4274 5.96875H14.4899V20.4063C14.4899 21.7121 14.2314 22.8291 13.7143 23.7571C13.2039 24.6851 12.4847 25.3944 11.5566 25.8849C10.6286 26.3688 9.54149 26.6108 8.29528 26.6108C7.1485 26.6108 6.11772 26.402 5.20295 25.9844C4.2948 25.5668 3.57558 24.9602 3.04528 24.1648C2.5216 23.3627 2.25977 22.3883 2.25977 21.2415H5.31232C5.31232 21.8049 5.44158 22.2921 5.70011 22.7031C5.96526 23.1141 6.32653 23.4356 6.78391 23.6676C7.24793 23.893 7.77823 24.0057 8.37482 24.0057C9.02444 24.0057 9.57463 23.8698 10.0254 23.598C10.4828 23.3196 10.8308 22.9119 11.0694 22.375C11.3081 21.8381 11.4274 21.1818 11.4274 20.4063V5.96875Z" fill="black" stroke="white" stroke-width="0.5"/>
<path d="M20.3226 5.96875H17.2601V20.4063C17.2601 21.7121 17.5186 22.8291 18.0357 23.7571C18.5461 24.6851 19.2653 25.3944 20.1934 25.8849C21.1214 26.3688 22.2085 26.6108 23.4547 26.6108C24.6015 26.6108 25.6323 26.402 26.5471 25.9844C27.4552 25.5668 28.1744 24.9602 28.7047 24.1648C29.2284 23.3627 29.4902 22.3883 29.4902 21.2415H26.4377C26.4377 21.8049 26.3084 22.2921 26.0499 22.7031C25.7847 23.1141 25.4235 23.4356 24.9661 23.6676C24.5021 23.893 23.9718 24.0057 23.3752 24.0057C22.7256 24.0057 22.1754 23.8698 21.7246 23.598C21.2672 23.3196 20.9192 22.9119 20.6806 22.375C20.4419 21.8381 20.3226 21.1818 20.3226 20.4063V5.96875Z" fill="black" stroke="white" stroke-width="0.5"/>
</svg>
